<svg aria-hidden="true" style="position:absolute;width:0;height:0;overflow:hidden" xmlns="http://www.w3.org/2000/svg">
  <defs>
    <symbol id="icon-marker" viewBox="0 0 32 32">
      <path d="M32 3.223 28.777 0 16 12.777 3.223 0 0 3.223 12.777 16 0 28.777 3.223 32 16 19.223 28.777 32 32 28.777 19.223 16 32 3.223z"/>
    </symbol>
    <symbol id="icon-connection" viewBox="0 0 40 32">
      <path d="M20 18c3.308 0 6.308 1.346 8.481 3.519l-2.827 2.827C24.205 22.897 22.205 22 20 22s-4.206.897-5.654 2.346l-2.827-2.827A11.963 11.963 0 0 1 20 18zM5.858 15.858C9.635 12.081 14.658 10 20 10s10.365 2.08 14.142 5.858l-2.828 2.828C28.292 15.664 24.274 14 20 14s-8.292 1.664-11.314 4.686l-2.828-2.828zM30.899 4.201a27.89 27.89 0 0 1 8.899 6l-2.828 2.828C32.437 8.496 26.41 6 19.999 6S7.561 8.496 3.028 13.029L.2 10.201A27.917 27.917 0 0 1 19.998 2c3.779 0 7.446.741 10.899 2.201zM18 28a2 2 0 1 1 3.999-.001A2 2 0 0 1 18 28z"/>
    </symbol>
  </defs>
</svg>
